<svg xmlns="http://www.w3.org/2000/svg" viewBox="0 0 400 400" fill="none" shape-rendering="auto"><metadata xmlns:rdf="http://www.w3.org/1999/02/22-rdf-syntax-ns#" xmlns:xsi="http://www.w3.org/2001/XMLSchema-instance" xmlns:dc="http://purl.org/dc/elements/1.1/" xmlns:dcterms="http://purl.org/dc/terms/"><rdf:RDF><rdf:Description><dc:title>Adventurer Neutral</dc:title><dc:creator>Lisa Wischofsky</dc:creator><dc:source xsi:type="dcterms:URI">https://www.figma.com/community/file/1184595184137881796</dc:source><dcterms:license xsi:type="dcterms:URI">https://creativecommons.org/licenses/by/4.0/</dcterms:license><dc:rights>Remix of „Adventurer Neutral” (https://www.figma.com/community/file/1184595184137881796) by „Lisa Wischofsky”, licensed under „CC BY 4.0” (https://creativecommons.org/licenses/by/4.0/)</dc:rights></rdf:Description></rdf:RDF></metadata><mask id="viewboxMask"><rect width="400" height="400" rx="0" ry="0" x="0" y="0" fill="#fff" /></mask><g mask="url(#viewboxMask)"><rect fill="#f2d3b1" width="400" height="400" x="0" y="0" /><g transform="translate(-279 -322)"><path d="M559.01 424.1a65.32 65.32 0 0 1 43.93 18.98c5.76 5.61 9.95 12.31 13.6 19.43 7.87-5.09 15.8-10.08 23.76-15.03a50.52 50.52 0 0 1 3.56 3.46c-3.17 3.52-7.07 5.39-10.96 7.93-4.77 3.03-9.55 6.03-14.3 9.08 3.17 10 4.53 20.39 2.8 30.81a64.8 64.8 0 0 1-20.75 38.93A64.57 64.57 0 0 1 558 554.53a64.54 64.54 0 0 1-36.9-10.63 65.67 65.67 0 0 1-26.4-34.58c-4.57-14.5-4.06-30.74 1.8-44.81a65.1 65.1 0 0 1 28.11-31.9c10.31-6.05 22.51-8.86 34.4-8.5Z" fill="#000"/><path d="M549.27 430.26c14.65-1.77 29.27 1.62 41.4 10.04a59.45 59.45 0 0 1 20.39 73.64c-6.12 13.64-17.67 24.9-31.58 30.43a58.17 58.17 0 0 1-32.48 3.67 59.6 59.6 0 0 1-40.35-26.68 61.43 61.43 0 0 1-9.37-29.31 60.38 60.38 0 0 1 13.41-40.36 59.47 59.47 0 0 1 38.58-21.43Z" fill="#fff"/><path d="M414.05 453.95a55.06 55.06 0 0 1 23.87 27.2c3.5 8.51 4.54 17.78 3.61 26.9a54.83 54.83 0 0 1-27.1 41.38c-16.49 9.64-37.66 9.77-54.3.41a55 55 0 0 1-27.4-38.84c-1.8-8.9-.64-17.67 1.9-26.3-5.83-3.62-12.14-6.61-17.75-10.54-1.95-1.1-1.44-4.12.68-4.64 1.65-.48 3.18.6 4.6 1.28 4.83 2.83 9.64 5.66 14.48 8.47 6.58-14.13 18.65-25.2 33.6-29.87a55.21 55.21 0 0 1 43.81 4.55Z" fill="#000"/><path d="M378.27 453.29a49.32 49.32 0 0 1 42.11 12.35 50.02 50.02 0 0 1 15.93 36.37 51.36 51.36 0 0 1-6.07 23.26 49.5 49.5 0 0 1-33.98 24.9c-8.07 1.72-16.23 1.1-24.08-1.36-19.1-5.88-33.31-23.78-34.38-43.79-.98-12.79 3.48-25.72 11.85-35.4a49.5 49.5 0 0 1 28.62-16.33Z" fill="#fff"/><path d="M527.27 466.19c7.37-.9 15.21 1.78 20.25 7.3a24.2 24.2 0 0 1 6.4 15.46 23.88 23.88 0 0 1-8.72 19.24c-6.96 5.83-17.24 6.92-25.36 2.96-8.64-4.1-14.23-13.6-13.38-23.18.7-11.14 9.74-20.51 20.81-21.78ZM358.54 480.84c11.4-3.87 24.34 3 27.54 14.6 3.77 11.68-4.02 24.85-16.03 27.31-10.63 2.65-22.19-3.54-25.66-13.94-3.92-11.13 2.75-24.59 14.15-27.97Z" fill="#000"/></g><g transform="translate(-279 -322)"><path d="M530.99 353.9c17.06 1.95 34 7.42 48.62 16.5 6.84 4.33 13.98 9.93 18.27 16.9.9 1.17 1.25 3.53-.22 4.34-1.19 1.18-2.85.5-4.15-.1-16.36-8.83-35.52-13.28-53.92-15.02-13.52-.79-28.3-.86-41.16 3.86-2.92 1.03-5.5 2.98-8.47 3.85-1.37.25-2.43-1.11-2.88-2.26-1.81-4.7-2.23-10.24.18-14.8 2.6-5.35 7.91-8.65 13.31-10.66 9.68-3.6 20.27-3.32 30.42-2.61ZM414.04 408.09c8.18 2.36 14.6 10.77 13.54 19.42-1.87.56-3.6 1-5.58.73-14.22-1.45-29.3 1.52-42.82 5.85-14.05 4.67-28.5 11.6-39.42 21.77-1.34 1.3-4.25 2.95-5.5.75-1.73-2.36.02-4.07 1.38-5.97 12.84-16.22 29.69-30.97 48.9-39.03 8.9-3.65 20.04-6.5 29.5-3.53Z" fill="#000"/></g><g transform="translate(-279 -322)"><path d="M525.03 563.67c.41.78.8 1.57 1.14 2.37.47 2.66-1.95 3.31-3.8 4.34-4 1.77-8.06 3.4-12.13 4.98-17.66 6.32-35.39 11.11-54.24 11.94-6.5.5-12.94.62-19.44.04-4.9-.57-10.15-.63-14.87-2.03-2.35-.88-2.73-3.93-.4-5.07 2.68-.12 5.48.83 8.18 1.02 7.2.89 14.3.61 21.54.61 22.5-.76 45.02-6.79 65.7-15.48 2.76-1.19 5.22-2.6 8.32-2.72Z" fill="#000"/></g><g transform="translate(-279 -322)"></g></g></svg>